<svg xmlns="http://www.w3.org/2000/svg" xmlns:xlink="http://www.w3.org/1999/xlink" width="500" zoomAndPan="magnify" viewBox="0 0 375 374.999991" height="500" preserveAspectRatio="xMidYMid meet" version="1.0"><defs><filter x="0%" y="0%" width="100%" height="100%" id="cae0ee480a"><feColorMatrix values="0 0 0 0 1 0 0 0 0 1 0 0 0 0 1 0 0 0 1 0" color-interpolation-filters="sRGB"/></filter><g/><clipPath id="73684c9e8c"><path d="M 0 0.078125 L 126 0.078125 L 126 126.078125 L 0 126.078125 Z M 0 0.078125 " clip-rule="nonzero"/></clipPath><mask id="3045bb03a1"><g filter="url(#cae0ee480a)"><rect x="-94.5" width="540" fill="#000000" y="-206.499998" height="539.999987" fill-opacity="0.47"/></g></mask><clipPath id="17526026d7"><path d="M 8.25 8.324219 L 118.601562 8.324219 L 118.601562 118.675781 L 8.25 118.675781 Z M 8.25 8.324219 " clip-rule="nonzero"/></clipPath><clipPath id="361a5a47c3"><path d="M 24.75 8.324219 L 102.101562 8.324219 C 111.214844 8.324219 118.601562 15.710938 118.601562 24.824219 L 118.601562 102.175781 C 118.601562 111.289062 111.214844 118.675781 102.101562 118.675781 L 24.75 118.675781 C 15.640625 118.675781 8.25 111.289062 8.25 102.175781 L 8.25 24.824219 C 8.25 15.710938 15.640625 8.324219 24.75 8.324219 Z M 24.75 8.324219 " clip-rule="nonzero"/></clipPath><clipPath id="cb26d99e8b"><path d="M 0.25 0.324219 L 110.601562 0.324219 L 110.601562 110.675781 L 0.25 110.675781 Z M 0.25 0.324219 " clip-rule="nonzero"/></clipPath><clipPath id="dda2d1355f"><path d="M 16.75 0.324219 L 94.101562 0.324219 C 103.214844 0.324219 110.601562 7.710938 110.601562 16.824219 L 110.601562 94.175781 C 110.601562 103.289062 103.214844 110.675781 94.101562 110.675781 L 16.75 110.675781 C 7.640625 110.675781 0.25 103.289062 0.25 94.175781 L 0.25 16.824219 C 0.25 7.710938 7.640625 0.324219 16.75 0.324219 Z M 16.75 0.324219 " clip-rule="nonzero"/></clipPath><clipPath id="cfa75ad91f"><rect x="0" width="111" y="0" height="111"/></clipPath><clipPath id="1b1038a228"><path d="M 8.25 8.324219 L 118.425781 8.324219 L 118.425781 118.5 L 8.25 118.5 Z M 8.25 8.324219 " clip-rule="nonzero"/></clipPath><clipPath id="136e201e5e"><path d="M 24.75 8.324219 L 102.09375 8.324219 C 111.207031 8.324219 118.59375 15.710938 118.59375 24.824219 L 118.59375 102.167969 C 118.59375 111.28125 111.207031 118.664062 102.09375 118.664062 L 24.75 118.664062 C 15.636719 118.664062 8.25 111.28125 8.25 102.167969 L 8.25 24.824219 C 8.25 15.710938 15.636719 8.324219 24.75 8.324219 Z M 24.75 8.324219 " clip-rule="nonzero"/></clipPath><clipPath id="739a2cdd8f"><rect x="0" width="126" y="0" height="127"/></clipPath><clipPath id="781a16328a"><rect x="0" width="208" y="0" height="97"/></clipPath><clipPath id="603f08c3a9"><rect x="0" width="81" y="0" height="14"/></clipPath><clipPath id="49053d680a"><path d="M 255 90 L 344.398438 90 L 344.398438 104 L 255 104 Z M 255 90 " clip-rule="nonzero"/></clipPath><clipPath id="b6a0c96b6f"><path d="M 0.121094 2 L 7 2 L 7 11 L 0.121094 11 Z M 0.121094 2 " clip-rule="nonzero"/></clipPath><clipPath id="e7abfae794"><rect x="0" width="90" y="0" height="14"/></clipPath><clipPath id="a4555a70da"><rect x="0" width="6" y="0" height="25"/></clipPath><clipPath id="f871e2bb97"><rect x="0" width="345" y="0" height="127"/></clipPath></defs><rect x="-37.5" width="450" fill="#ffffff" y="-37.499999" height="449.999989" fill-opacity="1"/><rect x="-37.5" width="450" fill="#ffffff" y="-37.499999" height="449.999989" fill-opacity="1"/><g transform="matrix(1, 0, 0, 1, 12, 124)"><g clip-path="url(#f871e2bb97)"><g clip-path="url(#73684c9e8c)"><g mask="url(#3045bb03a1)"><g><g clip-path="url(#739a2cdd8f)"><g clip-path="url(#17526026d7)"><g clip-path="url(#361a5a47c3)"><g transform="matrix(1, 0, 0, 1, 8, 8)"><g clip-path="url(#cfa75ad91f)"><g clip-path="url(#cb26d99e8b)"><g clip-path="url(#dda2d1355f)"><path fill="#d9d9d9" d="M 0.25 0.324219 L 110.601562 0.324219 L 110.601562 110.675781 L 0.25 110.675781 Z M 0.25 0.324219 " fill-opacity="1" fill-rule="nonzero"/></g></g></g></g></g></g><g clip-path="url(#1b1038a228)"><g clip-path="url(#136e201e5e)"><path stroke-linecap="butt" transform="matrix(0.759831, 0, 0, 0.759831, 8.251479, 8.324249)" fill="none" stroke-linejoin="miter" d="M 21.713403 -0.0000399045 L 123.504101 -0.0000399045 C 135.497924 -0.0000399045 145.21945 9.721486 145.21945 21.715309 L 145.21945 123.506008 C 145.21945 135.499831 135.497924 145.216216 123.504101 145.216216 L 21.713403 145.216216 C 9.719579 145.216216 -0.00194639 135.499831 -0.00194639 123.506008 L -0.00194639 21.715309 C -0.00194639 9.721486 9.719579 -0.0000399045 21.713403 -0.0000399045 Z M 21.713403 -0.0000399045 " stroke="#a6a6a6" stroke-width="3.948245" stroke-opacity="1" stroke-miterlimit="4"/></g></g></g></g></g></g><g fill="#000000" fill-opacity="1"><g transform="translate(42.802055, 53.991359)"><g><path d="M 24.875 -32.546875 L 24.875 -27.15625 L 10.65625 -27.15625 L 10.65625 -18.546875 L 23.546875 -18.546875 L 23.546875 -13.21875 L 10.65625 -13.21875 L 10.65625 0 L 4.234375 0 L 4.234375 -32.546875 Z M 24.875 -32.546875 "/></g></g><g transform="translate(69.114179, 53.991359)"><g><path d="M 10.65625 0 L 4.234375 0 L 4.234375 -32.546875 L 10.65625 -32.546875 Z M 10.65625 0 "/></g></g></g><g fill="#239a72" fill-opacity="1"><g transform="translate(42.47807, 107.962323)"><g><path d="M 10.65625 0 L 4.234375 0 L 4.234375 -32.546875 L 10.65625 -32.546875 Z M 10.65625 0 "/></g></g><g transform="translate(57.392726, 107.962323)"><g><path d="M 26.09375 -32.546875 L 26.09375 -27.140625 L 16.703125 -27.140625 L 16.703125 0 L 10.28125 0 L 10.28125 -27.140625 L 0.890625 -27.140625 L 0.890625 -32.546875 Z M 26.09375 -32.546875 "/></g></g></g><path stroke-linecap="butt" transform="matrix(0.759831, 0, 0, 0.759831, 22.977197, 62.372439)" fill="none" stroke-linejoin="miter" d="M -0.000835163 1.000714 L 106.473264 1.000714 " stroke="#239a72" stroke-width="2" stroke-opacity="1" stroke-miterlimit="4"/><g transform="matrix(1, 0, 0, 1, 136, 7)"><g clip-path="url(#781a16328a)"><g fill="#000000" fill-opacity="1"><g transform="translate(0.685717, 75.301676)"><g><path d="M 38.234375 -50.046875 L 38.234375 -41.765625 L 16.390625 -41.765625 L 16.390625 -28.515625 L 36.21875 -28.515625 L 36.21875 -20.328125 L 16.390625 -20.328125 L 16.390625 0 L 6.5 0 L 6.5 -50.046875 Z M 38.234375 -50.046875 "/></g></g><g transform="translate(41.146366, 75.301676)"><g><path d="M 16.390625 0 L 6.5 0 L 6.5 -50.046875 L 16.390625 -50.046875 Z M 16.390625 0 "/></g></g><g transform="translate(64.080913, 75.301676)"><g><path d="M 16.09375 0 L 6.5 0 L 6.5 -50.046875 L 17.828125 -50.046875 L 37.9375 -17.796875 L 38.828125 -17.9375 L 38.828125 -50.046875 L 48.34375 -50.046875 L 48.34375 0 L 38.203125 0 L 16.953125 -34.4375 L 16.09375 -34.296875 Z M 16.09375 0 "/></g></g><g transform="translate(118.952672, 75.301676)"><g><path d="M 16.390625 0 L 6.5 0 L 6.5 -50.046875 L 16.390625 -50.046875 Z M 16.390625 0 "/></g></g><g transform="translate(141.88722, 75.301676)"><g><path d="M 16.390625 0 L 6.5 0 L 6.5 -50.046875 L 16.390625 -50.046875 Z M 16.390625 0 "/></g></g><g transform="translate(164.821767, 75.301676)"><g><path d="M 40.125 -50.046875 L 40.125 -41.734375 L 25.671875 -41.734375 L 25.671875 0 L 15.8125 0 L 15.8125 -41.734375 L 1.375 -41.734375 L 1.375 -50.046875 Z M 40.125 -50.046875 "/></g></g></g></g></g><g transform="matrix(1, 0, 0, 1, 142, 90)"><g clip-path="url(#603f08c3a9)"><g fill="#000000" fill-opacity="1"><g transform="translate(0.628285, 10.21592)"><g><path d="M 0.984375 0 L 0.984375 -7.609375 L 5.78125 -7.609375 L 5.78125 -6.8125 L 1.890625 -6.8125 L 1.890625 -4.25 L 5.453125 -4.25 L 5.453125 -3.453125 L 1.890625 -3.453125 L 1.890625 0 Z M 0.984375 0 "/></g></g></g><g fill="#000000" fill-opacity="1"><g transform="translate(9.505116, 10.21592)"><g><path d="M 0.921875 0 L 0.921875 -0.734375 L 2.8125 -0.734375 L 2.8125 -6.875 L 0.921875 -6.875 L 0.921875 -7.609375 L 5.625 -7.609375 L 5.625 -6.875 L 3.734375 -6.875 L 3.734375 -0.734375 L 5.625 -0.734375 L 5.625 0 Z M 0.921875 0 "/></g></g></g><g fill="#000000" fill-opacity="1"><g transform="translate(18.381946, 10.21592)"><g><path d="M 1.78125 -6.453125 L 1.703125 -6.453125 L 1.703125 0 L 0.875 0 L 0.875 -7.609375 L 2.171875 -7.609375 L 4.765625 -1.234375 L 4.84375 -1.234375 L 4.84375 -7.609375 L 5.671875 -7.609375 L 5.671875 0 L 4.375 0 Z M 1.78125 -6.453125 "/></g></g></g><g fill="#000000" fill-opacity="1"><g transform="translate(27.258776, 10.21592)"><g><path d="M 5.25 0 L 4.609375 -2.171875 L 1.9375 -2.171875 L 1.28125 0 L 0.34375 0 L 2.671875 -7.609375 L 3.875 -7.609375 L 6.21875 0 Z M 3.3125 -6.640625 L 3.21875 -6.640625 L 2.15625 -2.96875 L 4.390625 -2.96875 Z M 3.3125 -6.640625 "/></g></g></g><g fill="#000000" fill-opacity="1"><g transform="translate(36.135606, 10.21592)"><g><path d="M 1.78125 -6.453125 L 1.703125 -6.453125 L 1.703125 0 L 0.875 0 L 0.875 -7.609375 L 2.171875 -7.609375 L 4.765625 -1.234375 L 4.84375 -1.234375 L 4.84375 -7.609375 L 5.671875 -7.609375 L 5.671875 0 L 4.375 0 Z M 1.78125 -6.453125 "/></g></g></g><g fill="#000000" fill-opacity="1"><g transform="translate(45.012436, 10.21592)"><g><path d="M 3.515625 0.125 C 2.585938 0.125 1.894531 -0.207031 1.4375 -0.875 C 0.988281 -1.550781 0.765625 -2.53125 0.765625 -3.8125 C 0.765625 -5.082031 0.988281 -6.054688 1.4375 -6.734375 C 1.894531 -7.410156 2.585938 -7.75 3.515625 -7.75 C 3.867188 -7.75 4.171875 -7.695312 4.421875 -7.59375 C 4.679688 -7.5 4.898438 -7.375 5.078125 -7.21875 C 5.265625 -7.0625 5.414062 -6.878906 5.53125 -6.671875 C 5.65625 -6.472656 5.769531 -6.273438 5.875 -6.078125 L 5.078125 -5.71875 C 5.015625 -5.882812 4.9375 -6.039062 4.84375 -6.1875 C 4.757812 -6.332031 4.65625 -6.460938 4.53125 -6.578125 C 4.414062 -6.691406 4.273438 -6.78125 4.109375 -6.84375 C 3.953125 -6.914062 3.753906 -6.953125 3.515625 -6.953125 C 2.921875 -6.953125 2.472656 -6.722656 2.171875 -6.265625 C 1.878906 -5.804688 1.734375 -5.191406 1.734375 -4.421875 L 1.734375 -3.1875 C 1.734375 -2.425781 1.878906 -1.816406 2.171875 -1.359375 C 2.472656 -0.898438 2.921875 -0.671875 3.515625 -0.671875 C 3.753906 -0.671875 3.953125 -0.703125 4.109375 -0.765625 C 4.273438 -0.828125 4.414062 -0.914062 4.53125 -1.03125 C 4.65625 -1.144531 4.757812 -1.273438 4.84375 -1.421875 C 4.9375 -1.566406 5.015625 -1.722656 5.078125 -1.890625 L 5.875 -1.53125 C 5.769531 -1.320312 5.65625 -1.117188 5.53125 -0.921875 C 5.414062 -0.722656 5.265625 -0.546875 5.078125 -0.390625 C 4.898438 -0.234375 4.679688 -0.109375 4.421875 -0.015625 C 4.171875 0.078125 3.867188 0.125 3.515625 0.125 Z M 3.515625 0.125 "/></g></g></g><g fill="#000000" fill-opacity="1"><g transform="translate(53.889266, 10.21592)"><g><path d="M 0.984375 0 L 0.984375 -7.609375 L 5.671875 -7.609375 L 5.671875 -6.8125 L 1.890625 -6.8125 L 1.890625 -4.25 L 5.546875 -4.25 L 5.546875 -3.453125 L 1.890625 -3.453125 L 1.890625 -0.796875 L 5.671875 -0.796875 L 5.671875 0 Z M 0.984375 0 "/></g></g></g><g fill="#000000" fill-opacity="1"><g transform="translate(62.779062, 10.21592)"><g/></g></g><g fill="#000000" fill-opacity="1"><g transform="translate(71.655892, 10.21592)"><g/></g></g></g></g><g clip-path="url(#49053d680a)"><g transform="matrix(1, 0, 0, 1, 255, 90)"><g clip-path="url(#e7abfae794)"><g clip-path="url(#b6a0c96b6f)"><g fill="#000000" fill-opacity="1"><g transform="translate(0.158044, 10.21592)"><g><path d="M 3.734375 -6.8125 L 3.734375 0 L 2.8125 0 L 2.8125 -6.8125 L 0.265625 -6.8125 L 0.265625 -7.609375 L 6.265625 -7.609375 L 6.265625 -6.8125 Z M 3.734375 -6.8125 "/></g></g></g></g><g fill="#000000" fill-opacity="1"><g transform="translate(9.034874, 10.21592)"><g><path d="M 0.984375 0 L 0.984375 -7.609375 L 5.671875 -7.609375 L 5.671875 -6.8125 L 1.890625 -6.8125 L 1.890625 -4.25 L 5.546875 -4.25 L 5.546875 -3.453125 L 1.890625 -3.453125 L 1.890625 -0.796875 L 5.671875 -0.796875 L 5.671875 0 Z M 0.984375 0 "/></g></g></g><g fill="#000000" fill-opacity="1"><g transform="translate(17.911704, 10.21592)"><g><path d="M 3.515625 0.125 C 2.585938 0.125 1.894531 -0.207031 1.4375 -0.875 C 0.988281 -1.550781 0.765625 -2.53125 0.765625 -3.8125 C 0.765625 -5.082031 0.988281 -6.054688 1.4375 -6.734375 C 1.894531 -7.410156 2.585938 -7.75 3.515625 -7.75 C 3.867188 -7.75 4.171875 -7.695312 4.421875 -7.59375 C 4.679688 -7.5 4.898438 -7.375 5.078125 -7.21875 C 5.265625 -7.0625 5.414062 -6.878906 5.53125 -6.671875 C 5.65625 -6.472656 5.769531 -6.273438 5.875 -6.078125 L 5.078125 -5.71875 C 5.015625 -5.882812 4.9375 -6.039062 4.84375 -6.1875 C 4.757812 -6.332031 4.65625 -6.460938 4.53125 -6.578125 C 4.414062 -6.691406 4.273438 -6.78125 4.109375 -6.84375 C 3.953125 -6.914062 3.753906 -6.953125 3.515625 -6.953125 C 2.921875 -6.953125 2.472656 -6.722656 2.171875 -6.265625 C 1.878906 -5.804688 1.734375 -5.191406 1.734375 -4.421875 L 1.734375 -3.1875 C 1.734375 -2.425781 1.878906 -1.816406 2.171875 -1.359375 C 2.472656 -0.898438 2.921875 -0.671875 3.515625 -0.671875 C 3.753906 -0.671875 3.953125 -0.703125 4.109375 -0.765625 C 4.273438 -0.828125 4.414062 -0.914062 4.53125 -1.03125 C 4.65625 -1.144531 4.757812 -1.273438 4.84375 -1.421875 C 4.9375 -1.566406 5.015625 -1.722656 5.078125 -1.890625 L 5.875 -1.53125 C 5.769531 -1.320312 5.65625 -1.117188 5.53125 -0.921875 C 5.414062 -0.722656 5.265625 -0.546875 5.078125 -0.390625 C 4.898438 -0.234375 4.679688 -0.109375 4.421875 -0.015625 C 4.171875 0.078125 3.867188 0.125 3.515625 0.125 Z M 3.515625 0.125 "/></g></g></g><g fill="#000000" fill-opacity="1"><g transform="translate(26.788534, 10.21592)"><g><path d="M 4.75 -3.453125 L 1.78125 -3.453125 L 1.78125 0 L 0.875 0 L 0.875 -7.609375 L 1.78125 -7.609375 L 1.78125 -4.25 L 4.75 -4.25 L 4.75 -7.609375 L 5.671875 -7.609375 L 5.671875 0 L 4.75 0 Z M 4.75 -3.453125 "/></g></g></g><g fill="#000000" fill-opacity="1"><g transform="translate(35.665364, 10.21592)"><g><path d="M 1.78125 -6.453125 L 1.703125 -6.453125 L 1.703125 0 L 0.875 0 L 0.875 -7.609375 L 2.171875 -7.609375 L 4.765625 -1.234375 L 4.84375 -1.234375 L 4.84375 -7.609375 L 5.671875 -7.609375 L 5.671875 0 L 4.375 0 Z M 1.78125 -6.453125 "/></g></g></g><g fill="#000000" fill-opacity="1"><g transform="translate(44.542194, 10.21592)"><g><path d="M 3.265625 0.125 C 2.804688 0.125 2.410156 0.0351562 2.078125 -0.140625 C 1.742188 -0.316406 1.46875 -0.570312 1.25 -0.90625 C 1.03125 -1.238281 0.867188 -1.648438 0.765625 -2.140625 C 0.660156 -2.628906 0.609375 -3.1875 0.609375 -3.8125 C 0.609375 -4.425781 0.660156 -4.976562 0.765625 -5.46875 C 0.867188 -5.957031 1.03125 -6.367188 1.25 -6.703125 C 1.46875 -7.035156 1.742188 -7.289062 2.078125 -7.46875 C 2.410156 -7.65625 2.804688 -7.75 3.265625 -7.75 C 3.734375 -7.75 4.132812 -7.65625 4.46875 -7.46875 C 4.800781 -7.289062 5.078125 -7.035156 5.296875 -6.703125 C 5.515625 -6.367188 5.675781 -5.957031 5.78125 -5.46875 C 5.882812 -4.976562 5.9375 -4.425781 5.9375 -3.8125 C 5.9375 -3.1875 5.882812 -2.628906 5.78125 -2.140625 C 5.675781 -1.648438 5.515625 -1.238281 5.296875 -0.90625 C 5.078125 -0.570312 4.800781 -0.316406 4.46875 -0.140625 C 4.132812 0.0351562 3.734375 0.125 3.265625 0.125 Z M 3.265625 -0.671875 C 3.578125 -0.671875 3.835938 -0.726562 4.046875 -0.84375 C 4.253906 -0.96875 4.425781 -1.132812 4.5625 -1.34375 C 4.707031 -1.5625 4.8125 -1.828125 4.875 -2.140625 C 4.9375 -2.453125 4.96875 -2.800781 4.96875 -3.1875 L 4.96875 -4.421875 C 4.96875 -4.804688 4.9375 -5.15625 4.875 -5.46875 C 4.8125 -5.78125 4.707031 -6.046875 4.5625 -6.265625 C 4.425781 -6.484375 4.253906 -6.648438 4.046875 -6.765625 C 3.835938 -6.890625 3.578125 -6.953125 3.265625 -6.953125 C 2.960938 -6.953125 2.707031 -6.890625 2.5 -6.765625 C 2.289062 -6.648438 2.113281 -6.484375 1.96875 -6.265625 C 1.832031 -6.046875 1.734375 -5.78125 1.671875 -5.46875 C 1.609375 -5.15625 1.578125 -4.804688 1.578125 -4.421875 L 1.578125 -3.1875 C 1.578125 -2.800781 1.609375 -2.453125 1.671875 -2.140625 C 1.734375 -1.828125 1.832031 -1.5625 1.96875 -1.34375 C 2.113281 -1.132812 2.289062 -0.96875 2.5 -0.84375 C 2.707031 -0.726562 2.960938 -0.671875 3.265625 -0.671875 Z M 3.265625 -0.671875 "/></g></g></g><g fill="#000000" fill-opacity="1"><g transform="translate(53.419025, 10.21592)"><g><path d="M 1.3125 0 L 1.3125 -7.609375 L 2.21875 -7.609375 L 2.21875 -0.796875 L 5.828125 -0.796875 L 5.828125 0 Z M 1.3125 0 "/></g></g></g><g fill="#000000" fill-opacity="1"><g transform="translate(62.295855, 10.21592)"><g><path d="M 3.265625 0.125 C 2.804688 0.125 2.410156 0.0351562 2.078125 -0.140625 C 1.742188 -0.316406 1.46875 -0.570312 1.25 -0.90625 C 1.03125 -1.238281 0.867188 -1.648438 0.765625 -2.140625 C 0.660156 -2.628906 0.609375 -3.1875 0.609375 -3.8125 C 0.609375 -4.425781 0.660156 -4.976562 0.765625 -5.46875 C 0.867188 -5.957031 1.03125 -6.367188 1.25 -6.703125 C 1.46875 -7.035156 1.742188 -7.289062 2.078125 -7.46875 C 2.410156 -7.65625 2.804688 -7.75 3.265625 -7.75 C 3.734375 -7.75 4.132812 -7.65625 4.46875 -7.46875 C 4.800781 -7.289062 5.078125 -7.035156 5.296875 -6.703125 C 5.515625 -6.367188 5.675781 -5.957031 5.78125 -5.46875 C 5.882812 -4.976562 5.9375 -4.425781 5.9375 -3.8125 C 5.9375 -3.1875 5.882812 -2.628906 5.78125 -2.140625 C 5.675781 -1.648438 5.515625 -1.238281 5.296875 -0.90625 C 5.078125 -0.570312 4.800781 -0.316406 4.46875 -0.140625 C 4.132812 0.0351562 3.734375 0.125 3.265625 0.125 Z M 3.265625 -0.671875 C 3.578125 -0.671875 3.835938 -0.726562 4.046875 -0.84375 C 4.253906 -0.96875 4.425781 -1.132812 4.5625 -1.34375 C 4.707031 -1.5625 4.8125 -1.828125 4.875 -2.140625 C 4.9375 -2.453125 4.96875 -2.800781 4.96875 -3.1875 L 4.96875 -4.421875 C 4.96875 -4.804688 4.9375 -5.15625 4.875 -5.46875 C 4.8125 -5.78125 4.707031 -6.046875 4.5625 -6.265625 C 4.425781 -6.484375 4.253906 -6.648438 4.046875 -6.765625 C 3.835938 -6.890625 3.578125 -6.953125 3.265625 -6.953125 C 2.960938 -6.953125 2.707031 -6.890625 2.5 -6.765625 C 2.289062 -6.648438 2.113281 -6.484375 1.96875 -6.265625 C 1.832031 -6.046875 1.734375 -5.78125 1.671875 -5.46875 C 1.609375 -5.15625 1.578125 -4.804688 1.578125 -4.421875 L 1.578125 -3.1875 C 1.578125 -2.800781 1.609375 -2.453125 1.671875 -2.140625 C 1.734375 -1.828125 1.832031 -1.5625 1.96875 -1.34375 C 2.113281 -1.132812 2.289062 -0.96875 2.5 -0.84375 C 2.707031 -0.726562 2.960938 -0.671875 3.265625 -0.671875 Z M 3.265625 -0.671875 "/></g></g></g><g fill="#000000" fill-opacity="1"><g transform="translate(71.172685, 10.21592)"><g><path d="M 4.84375 -1.015625 L 4.78125 -1.015625 C 4.71875 -0.867188 4.640625 -0.722656 4.546875 -0.578125 C 4.460938 -0.441406 4.351562 -0.320312 4.21875 -0.21875 C 4.09375 -0.113281 3.929688 -0.03125 3.734375 0.03125 C 3.546875 0.09375 3.320312 0.125 3.0625 0.125 C 2.238281 0.125 1.625 -0.207031 1.21875 -0.875 C 0.8125 -1.539062 0.609375 -2.5 0.609375 -3.75 C 0.609375 -5.0625 0.828125 -6.054688 1.265625 -6.734375 C 1.710938 -7.410156 2.398438 -7.75 3.328125 -7.75 C 3.679688 -7.75 3.988281 -7.695312 4.25 -7.59375 C 4.507812 -7.5 4.734375 -7.375 4.921875 -7.21875 C 5.109375 -7.0625 5.265625 -6.878906 5.390625 -6.671875 C 5.515625 -6.472656 5.613281 -6.273438 5.6875 -6.078125 L 4.90625 -5.71875 C 4.84375 -5.882812 4.769531 -6.039062 4.6875 -6.1875 C 4.601562 -6.332031 4.5 -6.460938 4.375 -6.578125 C 4.257812 -6.691406 4.117188 -6.78125 3.953125 -6.84375 C 3.785156 -6.914062 3.585938 -6.953125 3.359375 -6.953125 C 2.742188 -6.953125 2.289062 -6.722656 2 -6.265625 C 1.71875 -5.804688 1.578125 -5.191406 1.578125 -4.421875 L 1.578125 -3.25 C 1.578125 -2.863281 1.601562 -2.507812 1.65625 -2.1875 C 1.71875 -1.875 1.816406 -1.601562 1.953125 -1.375 C 2.085938 -1.144531 2.257812 -0.960938 2.46875 -0.828125 C 2.6875 -0.703125 2.953125 -0.640625 3.265625 -0.640625 C 3.765625 -0.640625 4.148438 -0.785156 4.421875 -1.078125 C 4.703125 -1.378906 4.84375 -1.769531 4.84375 -2.25 L 4.84375 -3.03125 L 3.234375 -3.03125 L 3.234375 -3.765625 L 5.6875 -3.765625 L 5.6875 0 L 4.84375 0 Z M 4.84375 -1.015625 "/></g></g></g><g fill="#000000" fill-opacity="1"><g transform="translate(80.049515, 10.21592)"><g><path d="M 2.8125 0 L 2.8125 -2.984375 L 0.1875 -7.609375 L 1.234375 -7.609375 L 2.328125 -5.625 L 3.25 -3.890625 L 3.296875 -3.890625 L 4.25 -5.625 L 5.328125 -7.609375 L 6.359375 -7.609375 L 3.734375 -2.984375 L 3.734375 0 Z M 2.8125 0 "/></g></g></g></g></g></g><g transform="matrix(1, 0, 0, 1, 228, 91)"><g clip-path="url(#a4555a70da)"><g fill="#000000" fill-opacity="1"><g transform="translate(5.420515, 6.821573)"><g><path d="M -2.25 -0.078125 C -1.925781 -0.078125 -1.671875 0.0078125 -1.484375 0.1875 C -1.304688 0.363281 -1.21875 0.597656 -1.21875 0.890625 C -1.21875 1.179688 -1.304688 1.421875 -1.484375 1.609375 C -1.671875 1.796875 -1.925781 1.890625 -2.25 1.890625 C -2.570312 1.890625 -2.820312 1.800781 -3 1.625 C -3.1875 1.445312 -3.28125 1.207031 -3.28125 0.90625 C -3.28125 0.613281 -3.1875 0.375 -3 0.1875 C -2.8125 0.0078125 -2.5625 -0.078125 -2.25 -0.078125 Z M -2.25 -0.078125 "/></g></g></g></g></g></g></g></svg>