<svg xmlns="http://www.w3.org/2000/svg" xmlns:xlink="http://www.w3.org/1999/xlink" width="40" zoomAndPan="magnify" viewBox="0 0 30 30.000001" height="40" preserveAspectRatio="xMidYMid meet" version="1.0"><defs><clipPath id="454299e929"><path d="M 0.484375 0 L 29.515625 0 L 29.515625 29.03125 L 0.484375 29.03125 Z M 0.484375 0 " clip-rule="nonzero"/></clipPath><clipPath id="b5f2030ab0"><path d="M 3.386719 0.433594 L 25.886719 0.433594 L 25.886719 28.738281 L 3.386719 28.738281 Z M 3.386719 0.433594 " clip-rule="nonzero"/></clipPath><clipPath id="4501ece003"><path d="M 0.386719 0.433594 L 22.886719 0.433594 L 22.886719 28.59375 L 0.386719 28.59375 Z M 0.386719 0.433594 " clip-rule="nonzero"/></clipPath><clipPath id="2a05aeb4cf"><rect x="0" width="23" y="0" height="29"/></clipPath></defs><g clip-path="url(#454299e929)"><path fill="#ffffff" d="M 0.484375 0 L 29.515625 0 L 29.515625 29.03125 L 0.484375 29.03125 Z M 0.484375 0 " fill-opacity="1" fill-rule="nonzero"/><path fill="#ffffff" d="M 0.484375 0 L 29.515625 0 L 29.515625 29.03125 L 0.484375 29.03125 Z M 0.484375 0 " fill-opacity="1" fill-rule="nonzero"/></g><g clip-path="url(#b5f2030ab0)"><g transform="matrix(1, 0, 0, 1, 3, 0.00000000000000569)"><g clip-path="url(#2a05aeb4cf)"><g clip-path="url(#4501ece003)"><path fill="#000000" d="M 21.402344 28.066406 C 20.34375 28.589844 19.160156 28.34375 18.148438 27.835938 C 17.667969 27.589844 17.238281 27.261719 16.824219 26.917969 C 16.429688 26.585938 16.058594 26.222656 15.710938 25.84375 C 14.972656 25.035156 14.324219 24.140625 13.765625 23.203125 C 12.765625 21.535156 12.003906 19.722656 11.335938 17.890625 C 10.964844 17.894531 10.59375 17.921875 10.222656 17.964844 C 9.347656 18.09375 8.492188 18.332031 7.671875 18.671875 C 6.832031 19.039062 6.035156 19.507812 5.304688 20.0625 C 4.605469 20.617188 3.972656 21.25 3.421875 21.953125 C 2.917969 22.621094 2.496094 23.34375 2.160156 24.113281 C 2.148438 24.152344 2.128906 24.1875 2.117188 24.226562 C 2.03125 24.441406 1.929688 24.621094 1.722656 24.742188 C 1.539062 24.847656 1.269531 24.894531 1.066406 24.828125 C 0.859375 24.761719 0.660156 24.632812 0.554688 24.433594 C 0.457031 24.242188 0.386719 23.980469 0.46875 23.769531 C 1.195312 21.921875 2.371094 20.273438 3.898438 19.007812 C 5.414062 17.75 7.207031 16.824219 9.136719 16.417969 C 9.667969 16.308594 10.207031 16.234375 10.75 16.203125 C 10.101562 14.230469 9.566406 12.222656 9.160156 10.1875 C 8.863281 8.722656 8.628906 7.242188 8.457031 5.753906 C 8.261719 6.070312 7.867188 6.269531 7.5 6.148438 C 7.292969 6.082031 7.09375 5.953125 6.988281 5.753906 C 6.878906 5.539062 6.863281 5.332031 6.902344 5.089844 C 7.164062 3.585938 7.625 2.136719 8.238281 0.742188 C 8.285156 0.683594 8.328125 0.625 8.375 0.566406 C 8.449219 0.484375 8.542969 0.425781 8.648438 0.390625 C 8.816406 0.320312 9.023438 0.289062 9.203125 0.347656 C 9.402344 0.414062 9.570312 0.539062 9.679688 0.699219 C 9.785156 0.773438 9.875 0.863281 9.933594 0.976562 C 10.613281 2.273438 11.292969 3.574219 11.972656 4.871094 C 12.179688 5.269531 12.085938 5.824219 11.667969 6.046875 C 11.273438 6.253906 10.722656 6.164062 10.5 5.738281 C 10.359375 5.46875 10.214844 5.199219 10.074219 4.929688 C 10.125 5.429688 10.183594 5.929688 10.25 6.433594 C 10.480469 8.144531 10.796875 9.847656 11.199219 11.53125 C 11.578125 13.117188 12.03125 14.6875 12.558594 16.234375 C 13.375 16.316406 14.179688 16.484375 14.964844 16.746094 C 16.835938 17.367188 18.558594 18.441406 19.9375 19.863281 C 20.621094 20.570312 21.226562 21.371094 21.710938 22.226562 C 22.234375 23.148438 22.652344 24.136719 22.765625 25.199219 C 22.886719 26.3125 22.445312 27.546875 21.402344 28.066406 Z M 19.492188 21.957031 C 18.941406 21.257812 18.3125 20.625 17.613281 20.070312 C 16.882812 19.515625 16.085938 19.046875 15.246094 18.675781 C 14.589844 18.40625 13.914062 18.199219 13.21875 18.058594 C 13.367188 18.445312 13.519531 18.828125 13.675781 19.207031 C 14.21875 20.488281 14.835938 21.742188 15.59375 22.90625 C 15.792969 23.214844 16.003906 23.511719 16.222656 23.804688 C 16.824219 24.574219 17.5 25.28125 18.261719 25.890625 C 18.550781 26.101562 18.859375 26.285156 19.1875 26.433594 C 19.414062 26.523438 19.644531 26.59375 19.882812 26.636719 C 20.027344 26.648438 20.167969 26.652344 20.3125 26.640625 C 20.394531 26.625 20.472656 26.601562 20.550781 26.574219 C 20.613281 26.542969 20.671875 26.507812 20.726562 26.472656 C 20.777344 26.425781 20.828125 26.375 20.875 26.324219 C 20.914062 26.261719 20.953125 26.199219 20.984375 26.132812 C 21.019531 26.027344 21.050781 25.917969 21.070312 25.808594 C 21.085938 25.617188 21.082031 25.421875 21.0625 25.230469 C 21 24.84375 20.886719 24.472656 20.742188 24.109375 C 20.414062 23.34375 19.992188 22.625 19.492188 21.957031 Z M 19.492188 21.957031 " fill-opacity="1" fill-rule="nonzero"/></g></g></g></g></svg>