<svg xmlns="http://www.w3.org/2000/svg" xmlns:xlink="http://www.w3.org/1999/xlink" width="40" zoomAndPan="magnify" viewBox="0 0 30 30.000001" height="40" preserveAspectRatio="xMidYMid meet" version="1.0"><defs><clipPath id="f4f9f179b5"><path d="M 0.484375 0 L 29.515625 0 L 29.515625 29.03125 L 0.484375 29.03125 Z M 0.484375 0 " clip-rule="nonzero"/></clipPath><clipPath id="e37a93a4c7"><path d="M 3.386719 0.433594 L 25.886719 0.433594 L 25.886719 28.738281 L 3.386719 28.738281 Z M 3.386719 0.433594 " clip-rule="nonzero"/></clipPath><clipPath id="c7a3b56697"><path d="M 0.386719 0.433594 L 22.886719 0.433594 L 22.886719 28.566406 L 0.386719 28.566406 Z M 0.386719 0.433594 " clip-rule="nonzero"/></clipPath><clipPath id="15cdd31513"><rect x="0" width="23" y="0" height="29"/></clipPath></defs><g clip-path="url(#f4f9f179b5)"><path fill="#ffffff" d="M 0.484375 0 L 29.515625 0 L 29.515625 29.03125 L 0.484375 29.03125 Z M 0.484375 0 " fill-opacity="1" fill-rule="nonzero"/><path fill="#00bf63" d="M 0.484375 0 L 29.515625 0 L 29.515625 29.03125 L 0.484375 29.03125 Z M 0.484375 0 " fill-opacity="1" fill-rule="nonzero"/></g><g clip-path="url(#e37a93a4c7)"><g transform="matrix(1, 0, 0, 1, 3, 0.00000000000000569)"><g clip-path="url(#15cdd31513)"><g clip-path="url(#c7a3b56697)"><path fill="#ffffff" d="M 21.433594 28.066406 C 20.375 28.589844 19.191406 28.34375 18.175781 27.839844 C 17.691406 27.597656 17.261719 27.269531 16.851562 26.925781 C 16.453125 26.59375 16.082031 26.238281 15.734375 25.859375 C 14.996094 25.054688 14.347656 24.164062 13.785156 23.230469 C 12.785156 21.570312 12.019531 19.769531 11.351562 17.949219 C 10.980469 17.953125 10.609375 17.976562 10.238281 18.019531 C 9.363281 18.148438 8.503906 18.386719 7.683594 18.722656 C 6.839844 19.085938 6.046875 19.554688 5.3125 20.105469 C 4.613281 20.660156 3.976562 21.289062 3.425781 21.988281 C 2.921875 22.652344 2.496094 23.371094 2.164062 24.136719 C 2.148438 24.175781 2.132812 24.210938 2.117188 24.25 C 2.035156 24.464844 1.929688 24.640625 1.726562 24.761719 C 1.542969 24.867188 1.273438 24.914062 1.066406 24.847656 C 0.859375 24.78125 0.660156 24.652344 0.554688 24.453125 C 0.457031 24.265625 0.386719 24.003906 0.46875 23.796875 C 1.199219 21.957031 2.375 20.316406 3.902344 19.058594 C 5.421875 17.808594 7.21875 16.882812 9.148438 16.484375 C 9.683594 16.371094 10.222656 16.300781 10.765625 16.265625 C 10.113281 14.304688 9.582031 12.308594 9.171875 10.28125 C 8.875 8.824219 8.640625 7.351562 8.46875 5.875 C 8.273438 6.1875 7.878906 6.382812 7.511719 6.265625 C 7.304688 6.199219 7.105469 6.070312 7 5.871094 C 6.886719 5.65625 6.871094 5.453125 6.914062 5.214844 C 7.171875 3.714844 7.636719 2.273438 8.25 0.886719 C 8.296875 0.828125 8.339844 0.773438 8.386719 0.714844 C 8.464844 0.628906 8.554688 0.570312 8.660156 0.539062 C 8.832031 0.464844 9.035156 0.4375 9.21875 0.496094 C 9.417969 0.558594 9.582031 0.683594 9.691406 0.847656 C 9.800781 0.917969 9.886719 1.007812 9.949219 1.121094 C 10.628906 2.410156 11.308594 3.703125 11.992188 4.996094 C 12.199219 5.390625 12.105469 5.941406 11.683594 6.164062 C 11.289062 6.371094 10.738281 6.277344 10.515625 5.855469 C 10.375 5.589844 10.230469 5.320312 10.089844 5.050781 C 10.140625 5.550781 10.199219 6.050781 10.265625 6.546875 C 10.496094 8.253906 10.8125 9.945312 11.214844 11.617188 C 11.59375 13.199219 12.050781 14.761719 12.578125 16.296875 C 13.394531 16.378906 14.203125 16.546875 14.988281 16.804688 C 16.859375 17.425781 18.585938 18.496094 19.964844 19.910156 C 20.648438 20.613281 21.257812 21.40625 21.746094 22.257812 C 22.269531 23.175781 22.683594 24.160156 22.800781 25.21875 C 22.921875 26.324219 22.480469 27.550781 21.433594 28.066406 Z M 19.523438 21.992188 C 18.96875 21.296875 18.335938 20.667969 17.640625 20.113281 C 16.90625 19.5625 16.109375 19.09375 15.269531 18.726562 C 14.613281 18.460938 13.933594 18.253906 13.238281 18.113281 C 13.386719 18.496094 13.539062 18.878906 13.699219 19.253906 C 14.242188 20.53125 14.859375 21.777344 15.617188 22.9375 C 15.816406 23.242188 16.027344 23.539062 16.246094 23.828125 C 16.847656 24.59375 17.527344 25.300781 18.289062 25.902344 C 18.578125 26.113281 18.890625 26.296875 19.214844 26.445312 C 19.441406 26.53125 19.675781 26.601562 19.914062 26.644531 C 20.054688 26.660156 20.199219 26.660156 20.34375 26.648438 C 20.421875 26.632812 20.503906 26.613281 20.582031 26.585938 C 20.644531 26.554688 20.699219 26.519531 20.757812 26.484375 C 20.808594 26.4375 20.859375 26.386719 20.90625 26.335938 C 20.945312 26.273438 20.984375 26.210938 21.015625 26.144531 C 21.050781 26.039062 21.082031 25.933594 21.101562 25.824219 C 21.117188 25.632812 21.113281 25.441406 21.09375 25.25 C 21.03125 24.863281 20.917969 24.492188 20.773438 24.132812 C 20.445312 23.371094 20.019531 22.65625 19.523438 21.992188 Z M 19.523438 21.992188 " fill-opacity="1" fill-rule="nonzero"/></g></g></g></g></svg>